<?xml version="1.0" ?>
<!-- Uploaded to: SVG Repo, www.svgrepo.com, Generator: SVG Repo Mixer Tools -->
<svg width="800px" height="800px" viewBox="0 0 64 64" id="Layer_1" version="1.1" xml:space="preserve" xmlns="http://www.w3.org/2000/svg" xmlns:xlink="http://www.w3.org/1999/xlink">
<style type="text/css">
	.st0{fill:#BF7D2C;}
	.st1{fill:#DFA738;}
</style>
<g id="Layer_22">
<path class="st0" d="M31.9,53.8c-3.1,5.6-9.3,8.9-15.7,8.1C8,61,2,53.8,2,45.5v-0.3c0-3.4,1.2-6.7,3.3-9.4L17.9,20l12.7,15.9   c0.5,0.7,1,1.4,1.4,2.1"/>
<path class="st0" d="M13.5,11.9c0.7,0.9,0.7,2.2,0.1,3.1c-1.3,2-4,2.5-6,1.2c-0.5-0.3-0.9-0.7-1.2-1.2c-0.6-1-0.5-2.2,0.1-3.1L10,7   L13.5,11.9z"/>
<path class="st0" d="M29.5,11.9c0.7,0.9,0.7,2.2,0.1,3.1c-1.3,2-4,2.5-6,1.2c-0.5-0.3-0.9-0.7-1.2-1.2c-0.6-1-0.5-2.2,0.1-3.1L26,7   L29.5,11.9z"/>
<circle class="st1" cx="46" cy="46" r="16"/>
<circle class="st0" cx="46" cy="46" r="12"/>
<path class="st1" d="M48,53h-4c-2.2,0-4-1.8-4-4h2c0,1.1,0.9,2,2,2h4c1.1,0,2-0.9,2-2s-0.9-2-2-2h-4c-2.2,0-4-1.8-4-4s1.8-4,4-4h4   c2.2,0,4,1.8,4,4h-2c0-1.1-0.9-2-2-2h-4c-1.1,0-2,0.9-2,2s0.9,2,2,2h4c2.2,0,4,1.8,4,4S50.2,53,48,53z"/>
<rect class="st1" height="4" width="2" x="45" y="37"/>
<rect class="st1" height="4" width="2" x="45" y="51"/>
<path class="st1" d="M20,53h-4c-2.2,0-4-1.8-4-4h2c0,1.1,0.9,2,2,2h4c1.1,0,2-0.9,2-2s-0.9-2-2-2h-4c-2.2,0-4-1.8-4-4s1.8-4,4-4h4   c2.2,0,4,1.8,4,4h-2c0-1.1-0.9-2-2-2h-4c-1.1,0-2,0.9-2,2s0.9,2,2,2h4c2.2,0,4,1.8,4,4S22.2,53,20,53z"/>
<rect class="st1" height="4" width="2" x="17" y="37"/>
<rect class="st1" height="4" width="2" x="17" y="51"/>
<rect class="st0" height="24" width="12" x="50" y="2"/>
<rect class="st1" height="12" width="12" x="38" y="14"/>
<rect class="st1" height="2" width="12" x="50" y="13"/>
<rect class="st1" height="2" width="12" x="50" y="9"/>
<rect class="st1" height="2" width="12" x="50" y="17"/>
<rect class="st1" height="2" width="12" x="50" y="21"/>
<rect class="st0" height="2" width="12" x="38" y="17"/>
<rect class="st0" height="2" width="12" x="38" y="21"/>
<rect class="st1" height="2" width="12" x="50" y="5"/>
</g>
</svg>